<?xml version="1.0" encoding="utf-8"?>
<!-- Generator: Adobe Illustrator 27.5.0, SVG Export Plug-In . SVG Version: 6.00 Build 0)  -->
<svg version="1.1" xmlns="http://www.w3.org/2000/svg" xmlns:xlink="http://www.w3.org/1999/xlink" x="0px" y="0px"
	 viewBox="0 0 500 500" style="enable-background:new 0 0 500 500;" xml:space="preserve">
<g id="BACKGROUND">
	
		<linearGradient id="XMLID_00000015335671569893657260000001629095962754933937_" gradientUnits="userSpaceOnUse" x1="508.4995" y1="507.7184" x2="12.024" y2="12.7431">
		<stop  offset="0" style="stop-color:#0B001B"/>
		<stop  offset="1" style="stop-color:#1F1542"/>
	</linearGradient>
	
		<rect id="XMLID_1_" x="0" style="fill:url(#XMLID_00000015335671569893657260000001629095962754933937_);" width="500" height="500"/>
</g>
<g id="OBJECTS">
	<g id="XMLID_8_">
		
			<radialGradient id="XMLID_00000080902499236805096020000009895960711241336979_" cx="250" cy="318.1437" r="65.9215" gradientTransform="matrix(1 0 0 0.1318 0 272.6365)" gradientUnits="userSpaceOnUse">
			<stop  offset="0" style="stop-color:#000000"/>
			<stop  offset="1" style="stop-color:#000000;stop-opacity:0"/>
		</radialGradient>
		
			<ellipse id="XMLID_7_" style="fill:url(#XMLID_00000080902499236805096020000009895960711241336979_);" cx="250" cy="314.557" rx="71.945" ry="13.161"/>
		<g id="XMLID_9_">
			
				<text id="XMLID_10_" transform="matrix(1 0 0 1 156.5901 359.5806)" style="fill:#FFFFFF; font-family:'Montserrat-Light'; font-size:30.0887px; letter-spacing:3;">COMPANY</text>
			
				<text id="XMLID_12_" transform="matrix(1 0 0 1 191.2996 376.4146)" style="fill:#FFFFFF; font-family:'Montserrat-Light'; font-size:8.4643px; letter-spacing:1;">SLOGAN GOES HERE</text>
		</g>
		<g id="XMLID_4_">
			<g id="XMLID_31_">
				
					<linearGradient id="XMLID_00000160898396481734239620000011246538668409382043_" gradientUnits="userSpaceOnUse" x1="285.7787" y1="141.6453" x2="285.7787" y2="296.9915">
					<stop  offset="0" style="stop-color:#FFA1EC"/>
					<stop  offset="1" style="stop-color:#16159A"/>
				</linearGradient>
				<path id="XMLID_43_" style="fill:url(#XMLID_00000160898396481734239620000011246538668409382043_);" d="M289.604,212.554
					c12.868-2.95,25.19-10.492,25.19-34.54c0-22.78-17.59-38.01-49.46-38.01h-22.33v4.3l21.51,0.02
					c21.56-0.04,33.15,14.78,33.23,35.33c-0.08,29.23-23.72,31.32-37.58,31.27v3.14c21.99-0.04,51.36,6.64,51.34,40.71
					c0.02,22.98-13.39,39.17-36.71,39.06h-15.15l-5.057,5.29h21.027c33.87,0,52.94-17.05,52.94-42.72
					C328.554,229.645,313.804,216.154,289.604,212.554z"/>
				
					<linearGradient id="XMLID_00000160148325235074609280000008637322672961805759_" gradientUnits="userSpaceOnUse" x1="285.707" y1="307.9785" x2="285.707" y2="194.6206">
					<stop  offset="0" style="stop-color:#FF42CC"/>
					<stop  offset="1" style="stop-color:#3400AC"/>
				</linearGradient>
				<path id="XMLID_42_" style="fill:url(#XMLID_00000160148325235074609280000008637322672961805759_);" d="M268.459,210.592
					c13.36-1.27,29.22-7,29.28-30.94c-0.07-20.52-11.64-35.33-33.13-35.33c2.1-0.16,42.197-1.898,42.197,35.362
					C306.805,187.645,304.889,210.592,268.459,210.592z"/>
				
					<linearGradient id="XMLID_00000170993283640964367580000002737689113125512330_" gradientUnits="userSpaceOnUse" x1="294.0219" y1="307.9786" x2="294.0219" y2="194.6204">
					<stop  offset="0" style="stop-color:#C3168E"/>
					<stop  offset="1" style="stop-color:#4500CE"/>
				</linearGradient>
				<path id="XMLID_40_" style="fill:url(#XMLID_00000170993283640964367580000002737689113125512330_);" d="M276.249,293.822
					c0.2,0,0.38-0.01,0.52-0.02c0.03,0,0.05,0,0.07-0.01c22.05-0.81,34.69-16.72,34.66-39.02c0.03-30.11-22.92-38.83-43.43-40.42
					c-0.31-0.02-0.64-0.05-0.97-0.07c0.9-0.05,53.79-1.87,53.79,39.74C320.889,254.022,324.389,293.822,276.249,293.822z"/>
				
					<linearGradient id="XMLID_00000025428915367831740250000012724027919797975738_" gradientUnits="userSpaceOnUse" x1="338.112" y1="219.564" x2="243.5793" y2="219.564">
					<stop  offset="0" style="stop-color:#FFA1EC;stop-opacity:0.4"/>
					<stop  offset="1" style="stop-color:#16159A;stop-opacity:0"/>
				</linearGradient>
				<path id="XMLID_47_" style="fill:url(#XMLID_00000025428915367831740250000012724027919797975738_);" d="M289.604,212.554
					c12.868-2.95,25.19-10.492,25.19-34.54c0-22.78-17.59-38.01-49.46-38.01h-22.33v4.3l21.51,0.02
					c21.56-0.04,33.15,14.78,33.23,35.33c-0.08,29.23-23.72,31.32-37.58,31.27v3.14c21.99-0.04,51.36,6.64,51.34,40.71
					c0.02,22.98-13.39,39.17-36.71,39.06h-15.15l-5.057,5.29h21.027c33.87,0,52.94-17.05,52.94-42.72
					C328.554,229.645,313.804,216.154,289.604,212.554z"/>
				
					<linearGradient id="XMLID_00000125586256684238253300000008694908488624203949_" gradientUnits="userSpaceOnUse" x1="285.7787" y1="263.312" x2="285.7787" y2="302.3152">
					<stop  offset="0" style="stop-color:#16181D;stop-opacity:0"/>
					<stop  offset="1" style="stop-color:#16181D"/>
				</linearGradient>
				<path id="XMLID_49_" style="fill:url(#XMLID_00000125586256684238253300000008694908488624203949_);" d="M289.604,212.554
					c12.868-2.95,25.19-10.492,25.19-34.54c0-22.78-17.59-38.01-49.46-38.01h-22.33v4.3l21.51,0.02
					c21.56-0.04,33.15,14.78,33.23,35.33c-0.08,29.23-23.72,31.32-37.58,31.27v3.14c21.99-0.04,51.36,6.64,51.34,40.71
					c0.02,22.98-13.39,39.17-36.71,39.06h-15.15l-5.057,5.29h21.027c33.87,0,52.94-17.05,52.94-42.72
					C328.554,229.645,313.804,216.154,289.604,212.554z"/>
			</g>
			
				<linearGradient id="XMLID_00000035523928744929582880000009767742098493633467_" gradientUnits="userSpaceOnUse" x1="196.7116" y1="141.6453" x2="196.7116" y2="296.9916">
				<stop  offset="0" style="stop-color:#FFA1EC"/>
				<stop  offset="1" style="stop-color:#5715FF"/>
			</linearGradient>
			<path id="XMLID_39_" style="fill:url(#XMLID_00000035523928744929582880000009767742098493633467_);" d="M189.253,140.004
				c0,0-17.21-1.313-17.798,14.754c-0.229,6.266,4.436,11.832,10.698,12.158c6.528,0.341,11.927-4.851,11.927-11.305
				c0-2.786-1.016-5.328-2.688-7.298c0.001,0,0.008,0,0.008,0s-1.414-1.971-0.93-3.424c0.703-2.109,4.034-2.419,6.54-1.926
				c5.764,1.818,9.963,7.108,10.156,13.41v126.33c-0.23,7.85-6.65,14.15-14.56,14.15c-0.48-0.01-2.34-0.01-2.91-0.01v2.28h32.28
				v-159.12H189.253z"/>
			
				<linearGradient id="XMLID_00000083783325268329335170000005086442939119877037_" gradientUnits="userSpaceOnUse" x1="203.547" y1="307.9786" x2="203.547" y2="194.6208">
				<stop  offset="0" style="stop-color:#FF42CC"/>
				<stop  offset="1" style="stop-color:#4500CE"/>
			</linearGradient>
			<path id="XMLID_50_" style="fill:url(#XMLID_00000083783325268329335170000005086442939119877037_);" d="M214.492,157.437
				c0,10.898,0,69.392,0,102.542c0,13.997,0,15.169,0,21.166c0,3.542-1.547,15.707-21.89,15.707c7.92,0,14.34-6.3,14.56-14.15
				v-126.33c-0.01-0.2-0.02-0.39-0.03-0.59c-0.42-6.04-4.54-11.06-10.12-12.82c-0.35-0.07-0.72-0.12-1.1-0.16
				C200.258,142.802,214.492,143.877,214.492,157.437z"/>
			<g id="XMLID_3_">
				
					<linearGradient id="XMLID_00000158737323590127876360000003731826556401168262_" gradientUnits="userSpaceOnUse" x1="213.9926" y1="219.291" x2="214.9927" y2="219.291">
					<stop  offset="0" style="stop-color:#FFFFFF"/>
					<stop  offset="1" style="stop-color:#FFB2FF"/>
				</linearGradient>
				<path id="XMLID_26_" style="fill:url(#XMLID_00000158737323590127876360000003731826556401168262_);" d="M214.492,157.437
					c0,0,0.035,1.933,0.097,5.316c0.044,3.383,0.107,8.215,0.184,14.014c0.045,5.799,0.097,12.564,0.153,19.813
					c0.021,7.249,0.044,14.98,0.066,22.712c-0.022,7.732-0.045,15.463-0.066,22.712c-0.056,7.249-0.108,14.014-0.152,19.813
					c-0.076,5.799-0.14,10.631-0.184,14.014c-0.062,3.383-0.097,5.316-0.097,5.316s-0.035-1.933-0.097-5.316
					c-0.044-3.383-0.108-8.215-0.184-14.014c-0.045-5.799-0.097-12.564-0.152-19.813c-0.021-7.249-0.043-14.98-0.066-22.712
					c0.023-7.732,0.045-15.464,0.066-22.712c0.056-7.248,0.108-14.014,0.153-19.813c0.076-5.799,0.139-10.631,0.183-14.014
					C214.457,159.37,214.492,157.437,214.492,157.437z"/>
			</g>
			<g id="XMLID_5_">
				
					<linearGradient id="XMLID_00000170982363187349128450000011127440804162573235_" gradientUnits="userSpaceOnUse" x1="264.752" y1="141.6453" x2="264.752" y2="296.9915">
					<stop  offset="0" style="stop-color:#FFA1EC"/>
					<stop  offset="1" style="stop-color:#5715FF"/>
				</linearGradient>
				<path id="XMLID_15_" style="fill:url(#XMLID_00000170982363187349128450000011127440804162573235_);" d="M268.577,212.554
					c12.868-2.95,25.19-10.492,25.19-34.54c0-22.78-17.59-38.01-49.46-38.01h-22.33v4.3l21.51,0.02
					c21.56-0.04,33.15,14.78,33.23,35.33c-0.08,29.23-23.72,31.32-37.58,31.27v3.14c21.99-0.04,51.36,6.64,51.34,40.71
					c0.02,22.98-13.39,39.17-36.71,39.06h-14.63v5.29h15.45c33.87,0,52.94-17.05,52.94-42.72
					C307.527,229.645,292.777,216.154,268.577,212.554z"/>
				
					<linearGradient id="XMLID_00000070097786009907918440000013848054417550600844_" gradientUnits="userSpaceOnUse" x1="264.6804" y1="307.9785" x2="264.6804" y2="194.6206">
					<stop  offset="0" style="stop-color:#FF42CC"/>
					<stop  offset="1" style="stop-color:#4500CE"/>
				</linearGradient>
				<path id="XMLID_55_" style="fill:url(#XMLID_00000070097786009907918440000013848054417550600844_);" d="M247.432,210.592
					c13.36-1.27,29.22-7,29.28-30.94c-0.07-20.52-11.64-35.33-33.13-35.33c2.1-0.16,42.197-1.898,42.197,35.362
					C285.779,187.645,283.862,210.592,247.432,210.592z"/>
				
					<linearGradient id="XMLID_00000069392756703143111570000018389190710497133246_" gradientUnits="userSpaceOnUse" x1="272.9952" y1="307.9786" x2="272.9952" y2="194.6204">
					<stop  offset="0" style="stop-color:#FF42CC"/>
					<stop  offset="1" style="stop-color:#4500CE"/>
				</linearGradient>
				<path id="XMLID_56_" style="fill:url(#XMLID_00000069392756703143111570000018389190710497133246_);" d="M255.222,293.822
					c0.2,0,0.38-0.01,0.52-0.02c0.03,0,0.05,0,0.07-0.01c22.05-0.81,34.69-16.72,34.66-39.02c0.03-30.11-22.92-38.83-43.43-40.42
					c-0.31-0.02-0.64-0.05-0.97-0.07c0.9-0.05,53.79-1.87,53.79,39.74C299.862,254.022,303.362,293.822,255.222,293.822z"/>
				
					<linearGradient id="XMLID_00000175301604822837716320000003022651550176249774_" gradientUnits="userSpaceOnUse" x1="255.8121" y1="293.7919" x2="255.8121" y2="293.7919">
					<stop  offset="0" style="stop-color:#FF42CC"/>
					<stop  offset="1" style="stop-color:#4500CE"/>
				</linearGradient>
				<path id="XMLID_13_" style="fill:url(#XMLID_00000175301604822837716320000003022651550176249774_);" d="M255.812,293.792"/>
			</g>
			<g id="XMLID_52_">
				
					<linearGradient id="XMLID_00000132046195462599307760000014728557845017260466_" gradientUnits="userSpaceOnUse" x1="262.1122" y1="178.1075" x2="286.2788" y2="178.1075">
					<stop  offset="0" style="stop-color:#FFFFFF"/>
					<stop  offset="1" style="stop-color:#FFB2FF"/>
				</linearGradient>
				<path id="XMLID_37_" style="fill:url(#XMLID_00000132046195462599307760000014728557845017260466_);" d="M263.403,147.188
					c0,0,0.309,0.107,0.887,0.307c0.581,0.195,1.43,0.483,2.481,0.944c0.535,0.209,1.112,0.473,1.729,0.784
					c0.625,0.296,1.298,0.624,1.985,1.034c0.348,0.197,0.708,0.401,1.078,0.61c0.356,0.233,0.722,0.472,1.098,0.718
					c0.767,0.473,1.506,1.065,2.28,1.68c0.798,0.587,1.503,1.345,2.304,2.051c0.362,0.392,0.73,0.791,1.104,1.197
					c0.379,0.401,0.753,0.819,1.085,1.281c0.346,0.451,0.697,0.908,1.052,1.371c0.325,0.484,0.632,0.989,0.955,1.492l0.482,0.762
					c0.148,0.263,0.275,0.539,0.415,0.81c0.273,0.545,0.549,1.096,0.828,1.651c0.944,2.29,1.82,4.72,2.267,7.286
					c0.55,2.546,0.745,5.19,0.822,7.824c0.074,2.622-0.166,5.298-0.659,7.847c-0.488,2.56-1.3,5.024-2.41,7.251
					c-0.495,1.144-1.199,2.156-1.811,3.182c-0.364,0.475-0.725,0.945-1.081,1.409l-0.531,0.69c-0.189,0.218-0.395,0.418-0.59,0.626
					c-0.394,0.411-0.782,0.816-1.165,1.214c-0.37,0.411-0.827,0.718-1.226,1.073c-0.41,0.341-0.814,0.677-1.21,1.007
					c-0.41,0.311-0.847,0.568-1.255,0.846c-1.606,1.167-3.29,1.868-4.714,2.589c-1.507,0.541-2.788,1.093-3.891,1.402
					c-2.215,0.574-3.48,0.902-3.48,0.902s1.243-0.395,3.42-1.087c1.082-0.354,2.333-0.96,3.797-1.556
					c1.377-0.779,3-1.538,4.549-2.714c0.393-0.283,0.815-0.546,1.207-0.86c0.378-0.332,0.764-0.671,1.156-1.015
					c0.38-0.357,0.818-0.665,1.167-1.076c0.362-0.398,0.729-0.801,1.101-1.211c0.184-0.206,0.379-0.406,0.557-0.621l0.497-0.684
					c0.333-0.458,0.67-0.922,1.011-1.39c0.556-1.018,1.25-1.986,1.712-3.103c1.056-2.163,1.823-4.557,2.275-7.05
					c0.459-2.5,0.668-5.059,0.577-7.657c-0.054-2.581-0.221-5.172-0.737-7.658c-0.413-2.511-1.247-4.878-2.144-7.115
					c-0.557-1.069-0.996-2.18-1.634-3.154c-0.301-0.497-0.586-0.997-0.89-1.476c-0.334-0.46-0.664-0.913-0.989-1.361
					c-0.312-0.46-0.665-0.876-1.026-1.277c-0.355-0.406-0.704-0.805-1.048-1.198c-0.765-0.709-1.436-1.473-2.205-2.068
					c-0.742-0.627-1.46-1.218-2.193-1.717c-0.36-0.258-0.711-0.51-1.053-0.755c-0.357-0.222-0.703-0.439-1.038-0.648
					c-0.663-0.435-1.315-0.787-1.922-1.108c-0.6-0.335-1.161-0.622-1.682-0.852c-1.025-0.495-1.853-0.848-2.423-1.071
					C263.705,147.313,263.403,147.188,263.403,147.188z"/>
			</g>
			<g id="XMLID_54_">
				
					<linearGradient id="XMLID_00000018233918647633738300000007815326925355712390_" gradientUnits="userSpaceOnUse" x1="283.1388" y1="178.1075" x2="307.3055" y2="178.1075">
					<stop  offset="0" style="stop-color:#FFFFFF"/>
					<stop  offset="1" style="stop-color:#FFB2FF"/>
				</linearGradient>
				<path id="XMLID_35_" style="fill:url(#XMLID_00000018233918647633738300000007815326925355712390_);" d="M284.43,147.188
					c0,0,0.309,0.107,0.887,0.307c0.581,0.195,1.43,0.483,2.482,0.944c0.535,0.209,1.112,0.473,1.729,0.784
					c0.625,0.296,1.298,0.624,1.985,1.034c0.348,0.197,0.708,0.401,1.078,0.61c0.356,0.233,0.722,0.472,1.098,0.718
					c0.767,0.473,1.506,1.065,2.28,1.68c0.798,0.587,1.503,1.345,2.304,2.051c0.362,0.392,0.73,0.791,1.104,1.197
					c0.38,0.401,0.753,0.819,1.085,1.281c0.346,0.451,0.697,0.908,1.052,1.371c0.325,0.484,0.632,0.989,0.955,1.492l0.482,0.762
					c0.148,0.263,0.275,0.539,0.415,0.81c0.273,0.545,0.549,1.096,0.828,1.651c0.944,2.29,1.82,4.72,2.267,7.286
					c0.55,2.546,0.745,5.19,0.822,7.824c0.074,2.622-0.166,5.298-0.66,7.847c-0.488,2.56-1.3,5.024-2.41,7.251
					c-0.495,1.144-1.199,2.156-1.811,3.182c-0.365,0.475-0.725,0.945-1.081,1.409l-0.531,0.69c-0.189,0.218-0.395,0.418-0.59,0.626
					c-0.394,0.411-0.782,0.816-1.165,1.214c-0.37,0.411-0.827,0.718-1.226,1.073c-0.411,0.341-0.814,0.677-1.21,1.007
					c-0.41,0.311-0.847,0.568-1.255,0.846c-1.606,1.167-3.29,1.868-4.714,2.589c-1.507,0.541-2.788,1.093-3.891,1.402
					c-2.215,0.574-3.481,0.902-3.481,0.902s1.244-0.395,3.42-1.087c1.082-0.354,2.333-0.96,3.797-1.556
					c1.376-0.779,3-1.538,4.549-2.714c0.393-0.283,0.814-0.546,1.207-0.86c0.378-0.332,0.764-0.671,1.156-1.015
					c0.38-0.357,0.818-0.665,1.167-1.076c0.362-0.398,0.729-0.801,1.101-1.211c0.184-0.206,0.379-0.406,0.557-0.621l0.497-0.684
					c0.333-0.458,0.67-0.922,1.011-1.39c0.556-1.018,1.25-1.986,1.712-3.103c1.056-2.163,1.823-4.557,2.275-7.05
					c0.459-2.5,0.668-5.059,0.577-7.657c-0.054-2.581-0.221-5.172-0.737-7.658c-0.413-2.511-1.247-4.878-2.144-7.115
					c-0.557-1.069-0.996-2.18-1.634-3.154c-0.301-0.497-0.586-0.997-0.89-1.476c-0.334-0.46-0.664-0.913-0.99-1.361
					c-0.311-0.46-0.665-0.876-1.025-1.277c-0.355-0.406-0.704-0.805-1.048-1.198c-0.765-0.709-1.436-1.473-2.205-2.068
					c-0.742-0.627-1.46-1.218-2.193-1.717c-0.36-0.258-0.711-0.51-1.053-0.755c-0.357-0.222-0.703-0.439-1.038-0.648
					c-0.663-0.435-1.315-0.787-1.922-1.108c-0.6-0.335-1.161-0.622-1.682-0.852c-1.025-0.495-1.853-0.848-2.423-1.071
					C284.732,147.313,284.43,147.188,284.43,147.188z"/>
			</g>
			<g id="XMLID_6_">
				
					<linearGradient id="XMLID_00000170238335455668385120000015602023062085662128_" gradientUnits="userSpaceOnUse" x1="275.1342" y1="244.0491" x2="300.4185" y2="244.0491">
					<stop  offset="0" style="stop-color:#FFFFFF"/>
					<stop  offset="1" style="stop-color:#FFB2FF"/>
				</linearGradient>
				<path id="XMLID_32_" style="fill:url(#XMLID_00000170238335455668385120000015602023062085662128_);" d="M275.319,219.287
					c0.885,0.343,1.783,0.654,2.656,1.029c0.862,0.4,1.752,0.751,2.596,1.194c0.839,0.449,1.718,0.834,2.519,1.355
					c0.816,0.495,1.645,0.972,2.416,1.539l1.178,0.819c0.386,0.282,0.75,0.594,1.127,0.89l1.119,0.903l1.054,0.98
					c0.72,0.638,1.356,1.358,1.993,2.079c0.667,0.695,1.224,1.481,1.807,2.246c0.611,0.746,1.08,1.591,1.603,2.399
					c0.547,0.796,0.928,1.685,1.383,2.534c0.474,0.842,0.781,1.759,1.142,2.651c0.385,0.885,0.611,1.823,0.889,2.744
					c0.3,0.916,0.485,1.859,0.663,2.803l0.281,1.413c0.076,0.473,0.114,0.952,0.172,1.428c0.085,0.954,0.268,1.902,0.262,2.861
					l0.066,2.87l-0.001-0.033c0.064,1.289,0.02,2.542-0.068,3.804c-0.095,1.258-0.23,2.513-0.445,3.754
					c-0.222,1.24-0.481,2.472-0.816,3.684c-0.154,0.609-0.344,1.208-0.529,1.807c-0.19,0.598-0.42,1.183-0.627,1.773
					c0.16-0.606,0.342-1.205,0.483-1.815c0.146-0.608,0.301-1.213,0.417-1.827c0.26-1.221,0.444-2.456,0.59-3.693
					c0.157-1.235,0.253-2.477,0.299-3.718c0.043-1.237,0.038-2.494-0.066-3.703l-0.001-0.034l-0.151-2.818
					c-0.004-0.942-0.197-1.867-0.29-2.8c-0.063-0.465-0.105-0.933-0.185-1.395l-0.291-1.375c-0.185-0.919-0.375-1.836-0.679-2.723
					c-0.281-0.892-0.51-1.802-0.896-2.656c-0.371-0.857-0.644-1.758-1.098-2.577c-0.432-0.827-0.789-1.698-1.312-2.475
					c-0.499-0.789-0.943-1.617-1.529-2.349c-0.558-0.75-1.09-1.522-1.733-2.206c-0.61-0.711-1.227-1.415-1.915-2.054l-0.995-0.995
					l-1.064-0.923c-0.359-0.303-0.705-0.623-1.074-0.913l-1.129-0.846c-0.739-0.586-1.539-1.085-2.327-1.603
					c-0.778-0.535-1.61-0.982-2.419-1.472c-0.811-0.488-1.668-0.886-2.502-1.335L275.319,219.287z"/>
			</g>
			<g id="XMLID_14_">
				
					<linearGradient id="XMLID_00000121987718096501070330000000473941749212630957_" gradientUnits="userSpaceOnUse" x1="296.161" y1="244.0491" x2="321.4452" y2="244.0491">
					<stop  offset="0" style="stop-color:#FFFFFF"/>
					<stop  offset="1" style="stop-color:#FFB2FF"/>
				</linearGradient>
				<path id="XMLID_33_" style="fill:url(#XMLID_00000121987718096501070330000000473941749212630957_);" d="M296.346,219.287
					c0.885,0.343,1.783,0.654,2.656,1.029c0.862,0.4,1.752,0.751,2.596,1.194c0.839,0.449,1.718,0.834,2.519,1.355
					c0.816,0.495,1.645,0.972,2.416,1.539l1.179,0.819c0.386,0.282,0.75,0.594,1.127,0.89l1.119,0.903l1.054,0.98
					c0.719,0.638,1.356,1.358,1.993,2.079c0.667,0.695,1.224,1.481,1.808,2.246c0.611,0.746,1.08,1.591,1.603,2.399
					c0.547,0.796,0.928,1.685,1.382,2.534c0.474,0.842,0.781,1.759,1.142,2.651c0.385,0.885,0.611,1.823,0.889,2.744
					c0.3,0.916,0.485,1.859,0.663,2.803l0.281,1.413c0.076,0.473,0.114,0.952,0.172,1.428c0.085,0.954,0.268,1.902,0.262,2.861
					l0.066,2.87l-0.001-0.033c0.064,1.289,0.02,2.542-0.068,3.804c-0.095,1.258-0.23,2.513-0.445,3.754
					c-0.222,1.24-0.481,2.472-0.816,3.684c-0.154,0.609-0.344,1.208-0.529,1.807c-0.189,0.598-0.42,1.183-0.627,1.773
					c0.16-0.606,0.342-1.205,0.483-1.815c0.146-0.608,0.301-1.213,0.417-1.827c0.26-1.221,0.444-2.456,0.59-3.693
					c0.157-1.235,0.253-2.477,0.299-3.718c0.043-1.237,0.038-2.494-0.066-3.703l-0.001-0.034l-0.151-2.818
					c-0.004-0.942-0.197-1.867-0.29-2.8c-0.063-0.465-0.105-0.933-0.185-1.395l-0.291-1.375c-0.185-0.919-0.375-1.836-0.679-2.723
					c-0.281-0.892-0.51-1.802-0.896-2.656c-0.371-0.857-0.644-1.758-1.098-2.577c-0.432-0.827-0.789-1.698-1.312-2.475
					c-0.499-0.789-0.943-1.617-1.529-2.349c-0.558-0.75-1.09-1.522-1.732-2.206c-0.61-0.711-1.227-1.415-1.915-2.054l-0.994-0.995
					l-1.064-0.923c-0.359-0.303-0.705-0.623-1.074-0.913l-1.129-0.846c-0.739-0.586-1.539-1.085-2.327-1.603
					c-0.778-0.535-1.61-0.982-2.419-1.472c-0.811-0.488-1.667-0.886-2.502-1.335L296.346,219.287z"/>
			</g>
			
				<linearGradient id="XMLID_00000046319430347449589390000013019365683227505332_" gradientUnits="userSpaceOnUse" x1="186.397" y1="193.9787" x2="186.397" y2="158.8116">
				<stop  offset="0" style="stop-color:#FF42CC"/>
				<stop  offset="1" style="stop-color:#4500CE"/>
			</linearGradient>
			<path id="XMLID_71_" style="fill:url(#XMLID_00000046319430347449589390000013019365683227505332_);" d="M194.082,155.612
				c0,5.96-4.62,10.87-10.49,11.29c-0.13,0.01-0.26,0.02-0.39,0.02c-0.15,0.01-0.3,0.01-0.45,0.01c-0.19,0-0.4-0.01-0.6-0.02
				c-0.24-0.01-0.48-0.03-0.71-0.06c-0.14-0.02-0.28-0.03-0.42-0.06c-0.18-0.02-0.36-0.06-0.55-0.1c-0.18-0.03-0.36-0.08-0.53-0.12
				c-0.36-0.1-0.71-0.21-1.05-0.33c-0.06-0.01-0.12-0.04-0.18-0.06c0.03,0.01,0.06,0.02,0.09,0.02c3.83,1.08,8.65-0.66,9.43-5.43
				c0.63-3.78-0.72-5.88-1.83-8.54c-4.19-10,7.61-9.43,7.61-9.43c-0.03,0-0.05,0.01-0.08,0.01c-0.16,0.02-0.31,0.04-0.47,0.06
				c-0.04,0.01-0.08,0.02-0.13,0.03c-0.17,0.03-0.34,0.06-0.5,0.11c-0.17,0.04-0.33,0.09-0.48,0.15c-0.46,0.17-0.87,0.4-1.19,0.69
				l-0.18,0.18c-0.05,0.05-0.1,0.11-0.15,0.17c-0.15,0.2-0.27,0.43-0.36,0.69c-0.48,1.45,0.93,3.42,0.93,3.42h-0.01
				c0.18,0.21,0.38,0.47,0.6,0.76C193.302,150.922,194.082,153.172,194.082,155.612z"/>
		</g>
	</g>
</g>
</svg>
